<svg xmlns="http://www.w3.org/2000/svg" xmlns:xlink="http://www.w3.org/1999/xlink" width="476" zoomAndPan="magnify" viewBox="0 0 357 407.249997" height="543" preserveAspectRatio="xMidYMid meet" version="1.0"><defs><clipPath id="bc339ddc7a"><path d="M 56 284 L 356.378906 284 L 356.378906 405.941406 L 56 405.941406 Z M 56 284 " clip-rule="nonzero"/></clipPath><clipPath id="aa68b38f93"><path d="M 56 284 L 356.378906 284 L 356.378906 405.941406 L 56 405.941406 Z M 56 284 " clip-rule="nonzero"/></clipPath></defs><path fill="#e8af7a" d="M 301.539062 292.3125 C 307.128906 296.769531 312.71875 301.222656 318.390625 305.675781 C 318.390625 307.296875 318.144531 310.617188 316.039062 314.101562 C 314.339844 317.015625 312.234375 318.714844 310.9375 319.609375 C 303.890625 317.257812 296.84375 314.910156 289.875 312.5625 C 289.957031 310.292969 290.523438 305.921875 293.199219 301.222656 C 295.953125 296.363281 299.597656 293.527344 301.539062 292.3125 Z M 103.816406 345.039062 C 101.222656 340.339844 97.742188 337.667969 95.878906 336.371094 C 90.207031 341.152344 84.539062 345.929688 78.867188 350.707031 C 78.949219 352.246094 79.355469 355 80.972656 357.914062 C 82.917969 361.480469 85.671875 363.421875 86.96875 364.3125 C 93.691406 361.800781 100.414062 359.371094 107.136719 356.863281 C 107.058594 354.59375 106.570312 349.976562 103.816406 345.039062 Z M 103.816406 345.039062 " fill-opacity="1" fill-rule="nonzero"/><path fill="#5e3023" d="M 187.976562 66.195312 C 184.574219 67.894531 180.847656 69.273438 177.042969 70.40625 M 177.042969 70.40625 C 155.496094 76.722656 129.492188 74.699219 123.015625 74.132812 C 122.121094 73.644531 110.378906 67.085938 109.566406 54.371094 C 109.164062 47.808594 111.917969 42.789062 113.292969 40.683594 C 111.269531 31.371094 114.183594 22.136719 120.828125 16.792969 C 126.09375 12.578125 132.003906 12.175781 134.433594 12.09375 C 134.757812 11.445312 140.023438 2.050781 151.039062 1.078125 C 161.894531 0.1875 168.535156 8.125 169.105469 8.773438 C 169.671875 8.449219 179.148438 3.183594 188.785156 8.289062 C 195.671875 11.933594 199.804688 19.464844 199.316406 27.480469 C 201.746094 29.019531 207.417969 33.152344 208.46875 39.628906 C 209.765625 47.890625 202.882812 54.695312 199.074219 58.5 C 195.914062 61.578125 192.1875 64.167969 187.976562 66.195312 " fill-opacity="1" fill-rule="nonzero"/><path fill="#e8af7a" d="M 177.121094 102.964844 C 177.121094 103.53125 177.121094 104.179688 177.121094 104.746094 M 177.203125 104.824219 C 177.203125 106.039062 177.203125 107.335938 177.203125 108.550781 C 177.609375 117.296875 170.15625 123.777344 163.269531 122.96875 C 156.953125 122.238281 151.445312 115.355469 152.660156 107.417969 C 152.660156 105.3125 152.660156 103.289062 152.742188 101.179688 C 146.097656 96.484375 139.863281 88.140625 134.679688 76.964844 C 133.21875 77.9375 130.789062 79.234375 128.117188 78.585938 C 122.769531 77.207031 119.773438 69.027344 122.851562 64.980469 C 124.472656 62.792969 127.386719 62.46875 129.007812 62.386719 C 128.117188 59.554688 127.226562 56.558594 126.414062 53.480469 C 131.925781 55.910156 138.160156 55.261719 142.375 51.859375 C 145.855469 49.023438 146.988281 45.136719 147.3125 43.679688 C 147.636719 44.003906 154.363281 50.160156 162.703125 47.648438 C 168.210938 46.027344 170.964844 41.574219 171.613281 40.441406 C 172.261719 41.25 174.207031 43.761719 177.609375 44.570312 C 181.660156 45.460938 186.03125 43.679688 188.785156 40.035156 C 189.433594 43.597656 189.921875 47.160156 190.246094 50.5625 C 191.621094 50.238281 193.160156 50.078125 194.617188 50.804688 C 199.316406 52.914062 200.613281 61.496094 196.480469 65.140625 C 194.699219 66.761719 192.433594 67.003906 190.648438 66.921875 C 189.757812 81.90625 185.304688 94.054688 177.121094 100.535156 C 177.121094 101.34375 177.121094 102.152344 177.121094 102.964844 " fill-opacity="1" fill-rule="nonzero"/><path fill="#e8af7a" d="M 199.964844 101.179688 C 223.050781 88.222656 246.214844 75.265625 269.300781 62.308594 C 274.648438 50.886719 278.375 45.460938 280.5625 46.109375 C 281.9375 46.515625 282.75 49.269531 282.828125 54.53125 C 303.324219 53.15625 313.933594 54.046875 314.664062 57.203125 C 315.554688 61.011719 302.109375 68.136719 274.324219 78.503906 C 252.941406 93.730469 231.554688 109.039062 210.171875 124.261719 C 208.226562 122.5625 204.664062 119.078125 202.3125 113.492188 C 200.046875 108.390625 199.882812 103.773438 199.964844 101.179688 Z M 114.671875 95.429688 C 92.070312 81.582031 69.472656 67.8125 46.953125 53.964844 C 42.09375 42.382812 38.53125 36.796875 36.34375 37.28125 C 34.964844 37.605469 34.074219 40.359375 33.75 45.625 C 13.257812 43.4375 2.644531 43.921875 1.835938 47.082031 C 0.78125 50.886719 13.984375 58.5 41.363281 69.917969 C 62.101562 85.957031 82.917969 102.074219 103.65625 118.109375 C 105.679688 116.488281 109.324219 113.167969 111.917969 107.660156 C 114.265625 102.640625 114.671875 98.023438 114.671875 95.429688 Z M 114.671875 95.429688 " fill-opacity="1" fill-rule="nonzero"/><path fill="#f7d55a" d="M 153.632812 220.71875 C 172.179688 219.503906 190.8125 218.289062 209.441406 217.15625 C 240.953125 241.859375 272.542969 266.480469 304.050781 291.179688 C 299.273438 299.523438 294.414062 307.78125 289.632812 316.125 C 257.234375 299.035156 224.75 281.949219 192.351562 264.859375 C 190.246094 276.035156 185.140625 294.582031 171.535156 313.210938 C 149.097656 343.984375 118.316406 354.675781 107.21875 357.996094 C 103.25 350.382812 99.28125 342.851562 95.3125 335.238281 C 108.433594 322.117188 121.554688 308.996094 134.679688 295.878906 C 131.4375 271.417969 128.277344 246.960938 125.039062 222.582031 C 130.710938 222.257812 136.378906 221.855469 142.050781 221.53125 M 153.632812 220.71875 C 149.746094 220.964844 145.855469 221.207031 142.050781 221.449219 " fill-opacity="1" fill-rule="nonzero"/><path fill="#418343" d="M 216.652344 106.445312 C 218.515625 110.820312 220.296875 115.273438 222.160156 119.726562 C 214.222656 123.695312 206.203125 127.582031 198.265625 131.550781 C 203.691406 159.414062 209.117188 187.351562 214.546875 215.214844 C 211.304688 219.019531 196.886719 235.136719 172.179688 238.050781 C 144.074219 241.453125 124.390625 225.09375 121.230469 222.339844 L 128.523438 135.277344 L 101.792969 119.726562 L 116.046875 92.839844 C 128.277344 97.699219 140.429688 102.558594 152.660156 107.417969 C 153.144531 113.574219 158.007812 118.433594 163.917969 118.917969 C 170.238281 119.484375 176.070312 114.949219 177.203125 108.550781 C 182.875 106.039062 188.625 103.53125 194.292969 101.019531 C 199.964844 98.507812 205.636719 96.078125 211.304688 93.570312 C 212.519531 96.484375 213.734375 99.398438 214.949219 102.234375 M 214.949219 102.234375 C 215.515625 103.609375 216.085938 105.070312 216.730469 106.445312 " fill-opacity="1" fill-rule="nonzero"/><g clip-path="url(#bc339ddc7a)"><path fill="#f3e9dc" d="M 318.390625 305.675781 C 322.195312 305.03125 327.378906 303.410156 331.023438 299.117188 C 335.238281 294.097656 334.183594 289.316406 337.828125 286.484375 C 340.339844 284.457031 345.363281 283.324219 356.378906 288.023438 C 347.550781 303.652344 338.800781 319.285156 329.972656 334.832031 C 326.8125 332.324219 323.652344 329.8125 320.496094 327.21875 C 317.335938 324.710938 314.09375 322.117188 310.9375 319.609375 C 312.476562 317.824219 314.257812 315.394531 315.796875 312.320312 C 317.011719 309.890625 317.820312 307.621094 318.390625 305.675781 Z M 82.675781 358.644531 C 82.351562 358.15625 81.460938 356.621094 80.40625 354.433594 C 79.757812 353.136719 79.273438 351.839844 78.867188 350.707031 C 71.253906 353.460938 63.640625 356.296875 56.105469 359.050781 C 64.855469 374.679688 73.601562 390.308594 82.433594 405.941406 C 92.152344 398.976562 93.773438 394.117188 93.367188 390.878906 C 92.800781 386.261719 88.183594 384.722656 86.078125 378.484375 C 84.296875 373.140625 85.589844 367.875 86.96875 364.3125 C 85.023438 362.207031 83.648438 360.183594 82.675781 358.644531 Z M 82.675781 358.644531 " fill-opacity="1" fill-rule="nonzero"/></g><path fill="#5e3023" d="M 176.878906 101.425781 C 170.074219 106.851562 160.355469 107.742188 153.308594 102.152344 C 152.660156 101.667969 153.46875 100.777344 154.117188 101.101562 C 161.410156 105.070312 168.941406 105.472656 175.746094 100.210938 C 176.554688 99.644531 177.769531 100.777344 176.878906 101.425781 Z M 127.875 65.304688 C 126.09375 64.25 124.230469 65.546875 123.660156 67.328125 C 123.015625 69.273438 123.660156 72.027344 125.28125 73.402344 C 125.929688 73.886719 126.984375 73.242188 126.496094 72.511719 C 125.929688 71.457031 125.28125 70.648438 125.199219 69.433594 C 125.039062 68.300781 125.445312 65.382812 127.308594 66.355469 C 127.953125 66.761719 128.601562 65.707031 127.875 65.304688 Z M 191.378906 52.75 C 190.488281 52.992188 190.894531 54.289062 191.785156 54.046875 C 195.589844 53.234375 195.347656 58.664062 195.023438 60.847656 C 194.863281 61.902344 196.480469 62.386719 196.644531 61.335938 C 196.96875 59.148438 197.292969 56.636719 195.996094 54.613281 C 195.023438 53.074219 193.242188 52.34375 191.378906 52.75 Z M 99.929688 104.988281 C 101.546875 102.558594 102.925781 99.886719 104.382812 97.292969 C 104.871094 96.402344 103.574219 95.675781 103.007812 96.484375 C 101.46875 98.996094 99.847656 101.503906 98.550781 104.179688 C 98.066406 105.148438 99.363281 105.878906 99.929688 104.988281 Z M 221.59375 96.726562 C 221.1875 95.753906 219.566406 96.160156 219.972656 97.132812 C 221.023438 99.886719 221.917969 102.640625 223.132812 105.3125 C 223.535156 106.121094 224.914062 105.554688 224.589844 104.664062 C 223.699219 102.074219 222.5625 99.398438 221.59375 96.726562 Z M 18.601562 45.054688 C 18.359375 45.378906 18.199219 45.785156 17.957031 46.191406 C 14.632812 45.378906 11.152344 44.652344 7.75 44.328125 C 6.859375 44.246094 6.695312 45.703125 7.507812 45.867188 C 10.664062 46.59375 13.984375 47.082031 17.308594 47.40625 C 16.902344 48.214844 16.578125 49.023438 16.253906 49.835938 C 11.71875 48.539062 7.019531 47.40625 2.402344 46.351562 C 1.351562 46.109375 0.945312 47.648438 2 47.972656 C 6.613281 49.105469 11.3125 50.238281 16.011719 51.128906 C 15.847656 51.699219 15.6875 52.183594 15.523438 52.75 C 12.285156 51.699219 9.046875 50.726562 5.804688 49.996094 C 4.832031 49.753906 4.429688 51.210938 5.398438 51.535156 C 8.640625 52.589844 12.042969 53.480469 15.363281 54.207031 C 15.28125 54.695312 15.203125 55.097656 15.203125 55.585938 C 15.121094 56.476562 16.578125 56.71875 16.742188 55.828125 C 17.46875 52.34375 18.359375 49.105469 19.980469 45.867188 C 20.222656 44.976562 19.089844 44.328125 18.601562 45.054688 Z M 25.40625 50.484375 C 25.570312 52.667969 25.488281 54.9375 25.894531 57.042969 C 26.054688 57.933594 27.351562 57.691406 27.433594 56.800781 C 27.59375 54.695312 27.191406 52.507812 27.027344 50.402344 C 26.945312 49.429688 25.328125 49.429688 25.40625 50.484375 Z M 28.566406 51.777344 C 28.890625 52.832031 29.132812 54.046875 29.699219 54.855469 C 30.105469 55.421875 30.996094 55.261719 30.996094 54.53125 C 30.996094 53.480469 30.429688 52.34375 30.105469 51.375 C 29.863281 50.320312 28.242188 50.804688 28.566406 51.777344 Z M 313.527344 58.664062 C 308.507812 60.039062 303.648438 61.738281 298.785156 63.359375 C 298.542969 62.792969 298.300781 62.226562 297.976562 61.738281 C 303.078125 60.039062 308.101562 58.417969 313.285156 57.125 C 314.257812 56.878906 313.851562 55.503906 312.878906 55.664062 C 307.535156 56.636719 302.109375 58.175781 297.085938 60.28125 C 296.679688 59.714844 296.355469 59.230469 295.871094 58.742188 C 299.839844 57.367188 303.808594 56.152344 307.859375 55.097656 C 308.507812 54.9375 308.425781 53.804688 307.695312 53.882812 C 303.242188 54.449219 298.785156 55.664062 294.65625 57.449219 C 293.925781 56.800781 293.035156 56.152344 292.144531 55.664062 C 291.335938 55.179688 290.6875 56.394531 291.414062 56.878906 C 294.574219 58.988281 296.84375 62.226562 297.734375 65.953125 C 297.976562 67.003906 299.597656 66.519531 299.351562 65.464844 C 299.273438 65.304688 299.273438 65.140625 299.191406 64.980469 C 304.050781 63.359375 308.992188 61.820312 313.773438 59.878906 C 314.664062 59.632812 314.339844 58.417969 313.527344 58.664062 Z M 291.902344 62.710938 C 290.121094 62.226562 288.335938 61.578125 286.636719 60.847656 C 285.097656 60.203125 283.640625 59.148438 282.019531 58.742188 C 281.371094 58.582031 280.886719 59.390625 281.371094 59.878906 C 283.882812 62.308594 288.257812 63.359375 291.496094 64.089844 C 292.386719 64.25 292.792969 62.953125 291.902344 62.710938 Z M 284.609375 63.359375 C 283.800781 63.441406 283.640625 64.492188 284.449219 64.816406 C 285.257812 65.140625 286.230469 65.140625 287.042969 65.222656 C 287.933594 65.304688 288.175781 63.765625 287.285156 63.601562 C 286.394531 63.523438 285.421875 63.277344 284.609375 63.359375 Z M 187.410156 238.617188 C 189.679688 247.042969 191.21875 255.546875 191.703125 264.292969 C 191.785156 265.34375 193.484375 265.34375 193.402344 264.292969 C 192.917969 255.382812 191.539062 246.636719 188.867188 238.214844 C 188.542969 237.324219 187.085938 237.648438 187.410156 238.617188 Z M 99.683594 332.402344 C 99.199219 331.511719 97.824219 332.324219 98.308594 333.214844 C 102.359375 340.90625 106.488281 348.519531 110.539062 356.132812 C 111.027344 357.105469 112.484375 356.214844 111.996094 355.324219 C 107.949219 347.710938 103.898438 340.015625 99.683594 332.402344 Z M 103.167969 328.921875 C 102.761719 328.03125 101.46875 328.839844 101.871094 329.648438 C 105.761719 338.152344 109.972656 346.496094 114.023438 354.917969 C 114.507812 355.890625 115.964844 355.082031 115.480469 354.109375 C 111.429688 345.6875 107.460938 337.261719 103.167969 328.921875 Z M 301.136719 289.640625 C 295.789062 297.578125 290.847656 305.757812 285.746094 313.855469 C 285.179688 314.75 286.636719 315.640625 287.203125 314.667969 C 292.304688 306.566406 297.570312 298.550781 302.351562 290.289062 C 302.835938 289.480469 301.621094 288.832031 301.136719 289.640625 Z M 298.460938 287.457031 C 292.46875 294.988281 286.71875 303.085938 282.101562 311.507812 C 281.613281 312.398438 282.828125 313.046875 283.394531 312.238281 C 288.742188 304.21875 293.925781 296.121094 299.597656 288.265625 C 300.082031 287.617188 298.949219 286.808594 298.460938 287.457031 Z M 354.027344 287.050781 C 351.519531 290.453125 349.167969 294.015625 346.820312 297.578125 C 343.175781 294.5 340.824219 290.695312 340.339844 285.835938 C 340.257812 284.863281 338.800781 284.863281 338.800781 285.835938 C 339.042969 291.019531 341.554688 296.039062 345.929688 298.957031 C 339.207031 309.644531 333.292969 320.984375 328.191406 332.566406 C 327.785156 333.539062 329.242188 334.429688 329.648438 333.375 C 336.777344 317.339844 345.523438 302.355469 355.246094 287.777344 C 355.8125 286.96875 354.597656 286.242188 354.027344 287.050781 Z M 332.402344 296.605469 C 334.023438 296.445312 335.480469 296.769531 336.9375 297.578125 C 337.746094 298.066406 338.316406 296.929688 337.667969 296.363281 C 336.128906 295.230469 334.347656 294.664062 332.484375 294.90625 C 331.429688 295.066406 331.347656 296.6875 332.402344 296.605469 Z M 330.621094 299.601562 C 332.320312 299.441406 333.941406 300.007812 335.15625 301.222656 C 335.886719 301.953125 337.101562 300.816406 336.289062 300.089844 C 334.75 298.46875 332.5625 297.902344 330.375 298.308594 C 329.730469 298.46875 329.890625 299.765625 330.621094 299.601562 Z M 332.96875 303.652344 C 333.699219 304.21875 334.75 302.925781 333.941406 302.355469 C 332.238281 301.0625 330.296875 300.574219 328.191406 300.816406 C 327.378906 300.898438 327.378906 302.113281 328.191406 302.03125 C 329.972656 302.03125 331.511719 302.679688 332.96875 303.652344 Z M 78.707031 390.390625 C 72.550781 379.457031 66.476562 368.445312 60.074219 357.671875 C 59.589844 356.941406 58.457031 357.589844 58.859375 358.402344 C 66.960938 373.546875 75.628906 388.449219 84.050781 403.429688 C 84.621094 404.402344 86.078125 403.511719 85.511719 402.621094 C 83.484375 399.058594 81.542969 395.492188 79.515625 391.929688 C 83.484375 389.417969 88.019531 389.09375 92.394531 390.714844 C 93.042969 390.957031 93.449219 389.90625 92.882812 389.664062 C 88.265625 387.234375 83.082031 387.636719 78.707031 390.390625 Z M 81.703125 379.78125 C 80.8125 379.945312 81.054688 381.320312 81.945312 381.320312 C 83.890625 381.402344 85.671875 381.484375 87.453125 382.292969 C 88.265625 382.617188 88.914062 381.5625 88.101562 381.160156 C 86.238281 380.105469 83.972656 379.378906 81.703125 379.78125 Z M 81.460938 375.8125 C 80.570312 376.054688 80.8125 377.351562 81.703125 377.351562 C 83.40625 377.351562 84.863281 377.433594 86.238281 378.648438 C 86.886719 379.214844 87.859375 378.324219 87.210938 377.675781 C 85.671875 376.300781 83.40625 375.246094 81.460938 375.8125 Z M 80.894531 373.707031 C 82.511719 373.546875 84.050781 374.03125 85.1875 375.246094 C 85.914062 375.894531 86.886719 374.921875 86.238281 374.195312 C 84.863281 372.65625 82.917969 371.925781 80.8125 372.089844 C 79.839844 372.089844 79.839844 373.789062 80.894531 373.707031 Z M 157.117188 302.519531 C 156.546875 302.03125 155.414062 302.679688 155.980469 303.410156 C 158.492188 306.730469 161.976562 309.566406 164.972656 312.480469 C 165.703125 313.210938 166.753906 312.074219 166.027344 311.425781 C 163.109375 308.429688 160.355469 305.03125 157.117188 302.519531 Z M 255.855469 255.949219 C 253.34375 258.703125 250.753906 261.539062 248.484375 264.453125 C 247.917969 265.183594 249.132812 266.074219 249.78125 265.425781 C 252.371094 262.835938 254.640625 259.839844 256.988281 257.085938 C 257.636719 256.273438 256.503906 255.140625 255.855469 255.949219 Z M 165.863281 72.511719 C 164.730469 73.242188 163.59375 74.210938 162.542969 75.023438 C 161.894531 75.507812 162.703125 76.640625 163.433594 76.15625 C 164.730469 75.265625 166.105469 74.457031 167.320312 73.402344 C 167.566406 73.242188 167.566406 72.917969 167.566406 72.753906 C 167.566406 72.671875 167.566406 72.511719 167.566406 72.429688 C 166.347656 67.570312 164.972656 62.710938 163.59375 57.773438 C 163.269531 56.71875 161.734375 57.203125 161.976562 58.175781 C 163.191406 62.953125 164.40625 67.734375 165.863281 72.511719 Z M 152.902344 60.445312 C 153.632812 60.523438 153.792969 59.308594 153.066406 59.230469 C 149.097656 58.664062 143.914062 59.554688 141.320312 63.035156 C 140.914062 63.601562 141.726562 64.332031 142.292969 64.007812 C 143.992188 62.953125 145.289062 61.738281 147.234375 61.09375 C 149.097656 60.445312 150.960938 60.28125 152.902344 60.445312 Z M 171.046875 56.070312 C 170.398438 56.71875 171.371094 57.691406 172.019531 57.042969 C 175.503906 53.964844 179.066406 54.289062 183.277344 55.179688 C 184.089844 55.34375 184.414062 54.371094 183.765625 53.964844 C 179.957031 51.292969 174.125 53.074219 171.046875 56.070312 Z M 153.957031 69.109375 C 154.199219 69.757812 155.332031 69.273438 155.089844 68.625 C 154.199219 66.355469 151.769531 64.738281 149.257812 65.304688 C 146.667969 65.871094 145.128906 68.542969 145.53125 71.054688 C 145.695312 71.945312 147.234375 71.78125 147.152344 70.8125 C 146.828125 66.679688 152.175781 65.140625 153.957031 69.109375 Z M 177.691406 59.878906 C 175.257812 60.203125 173.640625 62.386719 173.558594 64.738281 C 173.558594 65.707031 175.015625 65.707031 175.097656 64.738281 C 175.257812 61.011719 180.363281 60.363281 181.335938 64.007812 C 181.660156 65.0625 183.277344 64.574219 182.953125 63.523438 C 182.386719 61.253906 180.121094 59.554688 177.691406 59.878906 Z M 155.171875 84.175781 C 161.488281 83.605469 167.402344 81.824219 173.152344 79.070312 C 173.398438 78.503906 174.449219 78.421875 174.773438 79.234375 C 177.203125 85.792969 173.71875 93.324219 166.671875 94.863281 C 160.597656 96.160156 152.984375 92.109375 154.363281 85.144531 C 154.363281 84.984375 154.441406 84.902344 154.523438 84.820312 C 154.523438 84.417969 154.765625 84.175781 155.171875 84.175781 Z M 173.316406 80.285156 C 167.886719 83.445312 161.976562 85.144531 155.738281 85.792969 C 154.929688 92.757812 164.242188 94.863281 169.105469 92.109375 C 173.316406 89.761719 174.691406 84.660156 173.316406 80.285156 Z M 148.042969 75.914062 C 147.71875 76.722656 147.152344 77.53125 147.070312 78.421875 C 146.988281 79.070312 147.71875 79.71875 148.285156 79.152344 C 148.851562 78.421875 149.097656 77.613281 149.5 76.804688 C 149.90625 75.832031 148.449219 74.941406 148.042969 75.914062 Z M 150.3125 75.914062 C 150.066406 76.5625 149.90625 77.128906 149.824219 77.777344 C 149.746094 78.421875 150.878906 78.746094 151.121094 78.101562 C 151.363281 77.453125 151.445312 76.886719 151.605469 76.238281 C 151.6875 75.425781 150.554688 75.023438 150.3125 75.914062 Z M 179.472656 69.675781 C 179.148438 70.566406 178.660156 71.378906 178.824219 72.347656 C 178.90625 72.835938 179.550781 72.917969 179.875 72.671875 C 180.523438 72.027344 180.769531 70.972656 181.011719 70.164062 C 181.496094 69.109375 179.875 68.703125 179.472656 69.675781 Z M 181.578125 69.351562 C 181.335938 69.839844 181.011719 70.324219 180.847656 70.890625 C 180.605469 71.621094 181.820312 72.1875 182.144531 71.457031 C 182.386719 70.890625 182.550781 70.40625 182.710938 69.839844 C 182.953125 69.109375 181.984375 68.703125 181.578125 69.351562 Z M 181.578125 69.351562 " fill-opacity="1" fill-rule="nonzero"/><path fill="#f3e9dc" d="M 125.121094 97.292969 C 120.015625 106.203125 114.671875 115.03125 109.242188 123.695312 C 108.675781 124.585938 107.300781 123.777344 107.867188 122.886719 C 113.050781 114.058594 118.476562 105.3125 124.066406 96.644531 C 124.472656 96 125.523438 96.644531 125.121094 97.292969 Z M 134.597656 100.535156 C 129.332031 109.929688 124.308594 119.402344 119.207031 128.796875 C 118.722656 129.769531 120.179688 130.582031 120.664062 129.609375 C 125.769531 120.132812 130.871094 110.738281 135.894531 101.179688 C 136.296875 100.453125 135.003906 99.722656 134.597656 100.535156 Z M 201.097656 128.3125 C 201.421875 129.203125 202.882812 128.878906 202.636719 127.90625 C 199.882812 119.242188 196.886719 110.574219 193.484375 102.152344 C 193.160156 101.34375 191.863281 101.667969 192.1875 102.558594 C 194.78125 111.222656 197.777344 119.890625 201.097656 128.3125 Z M 212.277344 123.777344 C 212.683594 124.75 214.300781 124.34375 213.898438 123.292969 C 210.414062 114.707031 207.09375 106.121094 203.527344 97.617188 C 203.125 96.726562 201.585938 97.050781 201.988281 98.023438 C 205.230469 106.6875 208.792969 115.191406 212.277344 123.777344 Z M 132.085938 125.964844 C 131.925781 126.125 131.84375 126.289062 131.84375 126.449219 C 130.546875 129.121094 129.25 131.714844 127.953125 134.386719 C 127.46875 135.359375 128.925781 136.25 129.414062 135.195312 C 130.710938 132.605469 131.925781 130.011719 133.21875 127.421875 C 152.984375 127.90625 172.910156 127.664062 192.59375 125.722656 C 193.484375 127.664062 194.375 129.6875 195.265625 131.632812 C 195.753906 132.605469 197.128906 131.796875 196.726562 130.824219 C 193 122.644531 189.355469 114.464844 185.546875 106.363281 C 185.140625 105.472656 183.847656 106.285156 184.25 107.09375 C 184.980469 108.875 185.789062 110.574219 186.601562 112.359375 C 182.875 112.4375 179.066406 112.359375 175.421875 112.761719 C 174.449219 112.84375 174.367188 114.300781 175.421875 114.300781 C 179.230469 114.300781 183.117188 113.898438 186.921875 113.574219 C 187.003906 113.574219 187.085938 113.492188 187.167969 113.492188 C 188.785156 117.136719 190.40625 120.78125 192.109375 124.425781 C 172.75 125.316406 153.46875 126.125 134.109375 125.722656 C 136.136719 121.671875 138.082031 117.621094 140.023438 113.652344 C 144.558594 113.574219 149.097656 113.410156 153.632812 113.085938 C 154.441406 113.003906 154.441406 111.789062 153.632812 111.789062 C 149.339844 111.710938 145.046875 111.789062 140.753906 111.953125 C 141.804688 109.765625 142.941406 107.5 143.992188 105.3125 C 144.398438 104.421875 143.101562 103.691406 142.695312 104.582031 C 141.402344 107.09375 140.1875 109.683594 138.890625 112.195312 C 138.648438 112.359375 138.566406 112.601562 138.566406 112.925781 C 136.378906 117.21875 134.273438 121.589844 132.085938 125.964844 Z M 128.523438 143.78125 C 152.175781 144.835938 175.90625 144.1875 199.316406 140.867188 C 200.046875 140.785156 199.882812 139.488281 199.15625 139.570312 C 175.582031 142 152.175781 143.214844 128.523438 142.082031 C 127.386719 142 127.386719 143.699219 128.523438 143.78125 Z M 127.710938 160.382812 C 152.417969 159.574219 177.285156 158.117188 201.667969 154.308594 C 202.394531 154.230469 202.234375 153.015625 201.503906 153.09375 C 176.878906 155.523438 152.417969 157.953125 127.710938 158.683594 C 126.578125 158.683594 126.578125 160.382812 127.710938 160.382812 Z M 125.847656 173.988281 C 151.851562 173.828125 179.230469 175.851562 204.421875 168.644531 C 205.230469 168.402344 204.90625 167.269531 204.097656 167.429688 C 178.335938 173.019531 152.09375 172.207031 125.847656 172.371094 C 124.714844 172.289062 124.714844 173.988281 125.847656 173.988281 Z M 124.714844 187.515625 C 152.175781 187.515625 179.796875 187.433594 206.929688 182.65625 C 207.984375 182.492188 207.5 180.957031 206.527344 181.117188 C 179.390625 185.410156 152.175781 185.816406 124.714844 185.894531 C 123.660156 185.816406 123.660156 187.515625 124.714844 187.515625 Z M 123.984375 203.957031 C 152.742188 203.066406 181.820312 200.960938 210.171875 195.777344 C 210.898438 195.613281 210.738281 194.398438 210.007812 194.480469 C 181.335938 198.125 152.902344 201.445312 124.066406 202.335938 C 122.851562 202.253906 122.851562 203.957031 123.984375 203.957031 Z M 122.851562 213.511719 C 152.5 215.617188 183.765625 218.289062 212.601562 209.21875 C 213.332031 208.976562 213.007812 207.84375 212.277344 208.003906 C 182.386719 214.808594 153.226562 214 122.851562 211.8125 C 121.800781 211.730469 121.800781 213.429688 122.851562 213.511719 Z M 213.167969 213.351562 C 184.25 226.148438 151.445312 233.757812 122.285156 217.238281 C 121.3125 216.671875 120.503906 218.128906 121.476562 218.695312 C 151.039062 235.378906 184.65625 228.171875 213.898438 214.484375 C 214.625 214.160156 213.976562 213.027344 213.167969 213.351562 Z M 213.167969 213.351562 " fill-opacity="1" fill-rule="nonzero"/><path fill="#e8af7a" d="M 301.539062 292.3125 C 307.128906 296.769531 312.71875 301.222656 318.390625 305.675781 C 318.390625 307.296875 318.144531 310.617188 316.039062 314.101562 C 314.339844 317.015625 312.234375 318.714844 310.9375 319.609375 C 303.890625 317.257812 296.84375 314.910156 289.875 312.5625 C 289.957031 310.292969 290.523438 305.921875 293.199219 301.222656 C 295.953125 296.363281 299.597656 293.527344 301.539062 292.3125 Z M 103.816406 345.039062 C 101.222656 340.339844 97.742188 337.667969 95.878906 336.371094 C 90.207031 341.152344 84.539062 345.929688 78.867188 350.707031 C 78.949219 352.246094 79.355469 355 80.972656 357.914062 C 82.917969 361.480469 85.671875 363.421875 86.96875 364.3125 C 93.691406 361.800781 100.414062 359.371094 107.136719 356.863281 C 107.058594 354.59375 106.570312 349.976562 103.816406 345.039062 Z M 103.816406 345.039062 " fill-opacity="1" fill-rule="nonzero"/><path fill="#5e3023" d="M 187.976562 66.195312 C 184.574219 67.894531 180.847656 69.273438 177.042969 70.40625 M 177.042969 70.40625 C 155.496094 76.722656 129.492188 74.699219 123.015625 74.132812 C 122.121094 73.644531 110.378906 67.085938 109.566406 54.371094 C 109.164062 47.808594 111.917969 42.789062 113.292969 40.683594 C 111.269531 31.371094 114.183594 22.136719 120.828125 16.792969 C 126.09375 12.578125 132.003906 12.175781 134.433594 12.09375 C 134.757812 11.445312 140.023438 2.050781 151.039062 1.078125 C 161.894531 0.1875 168.535156 8.125 169.105469 8.773438 C 169.671875 8.449219 179.148438 3.183594 188.785156 8.289062 C 195.671875 11.933594 199.804688 19.464844 199.316406 27.480469 C 201.746094 29.019531 207.417969 33.152344 208.46875 39.628906 C 209.765625 47.890625 202.882812 54.695312 199.074219 58.5 C 195.914062 61.578125 192.1875 64.167969 187.976562 66.195312 " fill-opacity="1" fill-rule="nonzero"/><path fill="#e8af7a" d="M 177.121094 102.964844 C 177.121094 103.53125 177.121094 104.179688 177.121094 104.746094 M 177.203125 104.824219 C 177.203125 106.039062 177.203125 107.335938 177.203125 108.550781 C 177.609375 117.296875 170.15625 123.777344 163.269531 122.96875 C 156.953125 122.238281 151.445312 115.355469 152.660156 107.417969 C 152.660156 105.3125 152.660156 103.289062 152.742188 101.179688 C 146.097656 96.484375 139.863281 88.140625 134.679688 76.964844 C 133.21875 77.9375 130.789062 79.234375 128.117188 78.585938 C 122.769531 77.207031 119.773438 69.027344 122.851562 64.980469 C 124.472656 62.792969 127.386719 62.46875 129.007812 62.386719 C 128.117188 59.554688 127.226562 56.558594 126.414062 53.480469 C 131.925781 55.910156 138.160156 55.261719 142.375 51.859375 C 145.855469 49.023438 146.988281 45.136719 147.3125 43.679688 C 147.636719 44.003906 154.363281 50.160156 162.703125 47.648438 C 168.210938 46.027344 170.964844 41.574219 171.613281 40.441406 C 172.261719 41.25 174.207031 43.761719 177.609375 44.570312 C 181.660156 45.460938 186.03125 43.679688 188.785156 40.035156 C 189.433594 43.597656 189.921875 47.160156 190.246094 50.5625 C 191.621094 50.238281 193.160156 50.078125 194.617188 50.804688 C 199.316406 52.914062 200.613281 61.496094 196.480469 65.140625 C 194.699219 66.761719 192.433594 67.003906 190.648438 66.921875 C 189.757812 81.90625 185.304688 94.054688 177.121094 100.535156 C 177.121094 101.34375 177.121094 102.152344 177.121094 102.964844 " fill-opacity="1" fill-rule="nonzero"/><path fill="#e8af7a" d="M 199.964844 101.179688 C 223.050781 88.222656 246.214844 75.265625 269.300781 62.308594 C 274.648438 50.886719 278.375 45.460938 280.5625 46.109375 C 281.9375 46.515625 282.75 49.269531 282.828125 54.53125 C 303.324219 53.15625 313.933594 54.046875 314.664062 57.203125 C 315.554688 61.011719 302.109375 68.136719 274.324219 78.503906 C 252.941406 93.730469 231.554688 109.039062 210.171875 124.261719 C 208.226562 122.5625 204.664062 119.078125 202.3125 113.492188 C 200.046875 108.390625 199.882812 103.773438 199.964844 101.179688 Z M 114.671875 95.429688 C 92.070312 81.582031 69.472656 67.8125 46.953125 53.964844 C 42.09375 42.382812 38.53125 36.796875 36.34375 37.28125 C 34.964844 37.605469 34.074219 40.359375 33.75 45.625 C 13.257812 43.4375 2.644531 43.921875 1.835938 47.082031 C 0.78125 50.886719 13.984375 58.5 41.363281 69.917969 C 62.101562 85.957031 82.917969 102.074219 103.65625 118.109375 C 105.679688 116.488281 109.324219 113.167969 111.917969 107.660156 C 114.265625 102.640625 114.671875 98.023438 114.671875 95.429688 Z M 114.671875 95.429688 " fill-opacity="1" fill-rule="nonzero"/><path fill="#f7d55a" d="M 153.632812 220.71875 C 172.179688 219.503906 190.8125 218.289062 209.441406 217.15625 C 240.953125 241.859375 272.542969 266.480469 304.050781 291.179688 C 299.273438 299.523438 294.414062 307.78125 289.632812 316.125 C 257.234375 299.035156 224.75 281.949219 192.351562 264.859375 C 190.246094 276.035156 185.140625 294.582031 171.535156 313.210938 C 149.097656 343.984375 118.316406 354.675781 107.21875 357.996094 C 103.25 350.382812 99.28125 342.851562 95.3125 335.238281 C 108.433594 322.117188 121.554688 308.996094 134.679688 295.878906 C 131.4375 271.417969 128.277344 246.960938 125.039062 222.582031 C 130.710938 222.257812 136.378906 221.855469 142.050781 221.53125 M 153.632812 220.71875 C 149.746094 220.964844 145.855469 221.207031 142.050781 221.449219 " fill-opacity="1" fill-rule="nonzero"/><path fill="#418343" d="M 216.652344 106.445312 C 218.515625 110.820312 220.296875 115.273438 222.160156 119.726562 C 214.222656 123.695312 206.203125 127.582031 198.265625 131.550781 C 203.691406 159.414062 209.117188 187.351562 214.546875 215.214844 C 211.304688 219.019531 196.886719 235.136719 172.179688 238.050781 C 144.074219 241.453125 124.390625 225.09375 121.230469 222.339844 L 128.523438 135.277344 L 101.792969 119.726562 L 116.046875 92.839844 C 128.277344 97.699219 140.429688 102.558594 152.660156 107.417969 C 153.144531 113.574219 158.007812 118.433594 163.917969 118.917969 C 170.238281 119.484375 176.070312 114.949219 177.203125 108.550781 C 182.875 106.039062 188.625 103.53125 194.292969 101.019531 C 199.964844 98.507812 205.636719 96.078125 211.304688 93.570312 C 212.519531 96.484375 213.734375 99.398438 214.949219 102.234375 M 214.949219 102.234375 C 215.515625 103.609375 216.085938 105.070312 216.730469 106.445312 " fill-opacity="1" fill-rule="nonzero"/><g clip-path="url(#aa68b38f93)"><path fill="#f3e9dc" d="M 318.390625 305.675781 C 322.195312 305.03125 327.378906 303.410156 331.023438 299.117188 C 335.238281 294.097656 334.183594 289.316406 337.828125 286.484375 C 340.339844 284.457031 345.363281 283.324219 356.378906 288.023438 C 347.550781 303.652344 338.800781 319.285156 329.972656 334.832031 C 326.8125 332.324219 323.652344 329.8125 320.496094 327.21875 C 317.335938 324.710938 314.09375 322.117188 310.9375 319.609375 C 312.476562 317.824219 314.257812 315.394531 315.796875 312.320312 C 317.011719 309.890625 317.820312 307.621094 318.390625 305.675781 Z M 82.675781 358.644531 C 82.351562 358.15625 81.460938 356.621094 80.40625 354.433594 C 79.757812 353.136719 79.273438 351.839844 78.867188 350.707031 C 71.253906 353.460938 63.640625 356.296875 56.105469 359.050781 C 64.855469 374.679688 73.601562 390.308594 82.433594 405.941406 C 92.152344 398.976562 93.773438 394.117188 93.367188 390.878906 C 92.800781 386.261719 88.183594 384.722656 86.078125 378.484375 C 84.296875 373.140625 85.589844 367.875 86.96875 364.3125 C 85.023438 362.207031 83.648438 360.183594 82.675781 358.644531 Z M 82.675781 358.644531 " fill-opacity="1" fill-rule="nonzero"/></g><path fill="#5e3023" d="M 176.878906 101.425781 C 170.074219 106.851562 160.355469 107.742188 153.308594 102.152344 C 152.660156 101.667969 153.46875 100.777344 154.117188 101.101562 C 161.410156 105.070312 168.941406 105.472656 175.746094 100.210938 C 176.554688 99.644531 177.769531 100.777344 176.878906 101.425781 Z M 127.875 65.304688 C 126.09375 64.25 124.230469 65.546875 123.660156 67.328125 C 123.015625 69.273438 123.660156 72.027344 125.28125 73.402344 C 125.929688 73.886719 126.984375 73.242188 126.496094 72.511719 C 125.929688 71.457031 125.28125 70.648438 125.199219 69.433594 C 125.039062 68.300781 125.445312 65.382812 127.308594 66.355469 C 127.953125 66.761719 128.601562 65.707031 127.875 65.304688 Z M 191.378906 52.75 C 190.488281 52.992188 190.894531 54.289062 191.785156 54.046875 C 195.589844 53.234375 195.347656 58.664062 195.023438 60.847656 C 194.863281 61.902344 196.480469 62.386719 196.644531 61.335938 C 196.96875 59.148438 197.292969 56.636719 195.996094 54.613281 C 195.023438 53.074219 193.242188 52.34375 191.378906 52.75 Z M 99.929688 104.988281 C 101.546875 102.558594 102.925781 99.886719 104.382812 97.292969 C 104.871094 96.402344 103.574219 95.675781 103.007812 96.484375 C 101.46875 98.996094 99.847656 101.503906 98.550781 104.179688 C 98.066406 105.148438 99.363281 105.878906 99.929688 104.988281 Z M 221.59375 96.726562 C 221.1875 95.753906 219.566406 96.160156 219.972656 97.132812 C 221.023438 99.886719 221.917969 102.640625 223.132812 105.3125 C 223.535156 106.121094 224.914062 105.554688 224.589844 104.664062 C 223.699219 102.074219 222.5625 99.398438 221.59375 96.726562 Z M 18.601562 45.054688 C 18.359375 45.378906 18.199219 45.785156 17.957031 46.191406 C 14.632812 45.378906 11.152344 44.652344 7.75 44.328125 C 6.859375 44.246094 6.695312 45.703125 7.507812 45.867188 C 10.664062 46.59375 13.984375 47.082031 17.308594 47.40625 C 16.902344 48.214844 16.578125 49.023438 16.253906 49.835938 C 11.71875 48.539062 7.019531 47.40625 2.402344 46.351562 C 1.351562 46.109375 0.945312 47.648438 2 47.972656 C 6.613281 49.105469 11.3125 50.238281 16.011719 51.128906 C 15.847656 51.699219 15.6875 52.183594 15.523438 52.75 C 12.285156 51.699219 9.046875 50.726562 5.804688 49.996094 C 4.832031 49.753906 4.429688 51.210938 5.398438 51.535156 C 8.640625 52.589844 12.042969 53.480469 15.363281 54.207031 C 15.28125 54.695312 15.203125 55.097656 15.203125 55.585938 C 15.121094 56.476562 16.578125 56.71875 16.742188 55.828125 C 17.46875 52.34375 18.359375 49.105469 19.980469 45.867188 C 20.222656 44.976562 19.089844 44.328125 18.601562 45.054688 Z M 25.40625 50.484375 C 25.570312 52.667969 25.488281 54.9375 25.894531 57.042969 C 26.054688 57.933594 27.351562 57.691406 27.433594 56.800781 C 27.59375 54.695312 27.191406 52.507812 27.027344 50.402344 C 26.945312 49.429688 25.328125 49.429688 25.40625 50.484375 Z M 28.566406 51.777344 C 28.890625 52.832031 29.132812 54.046875 29.699219 54.855469 C 30.105469 55.421875 30.996094 55.261719 30.996094 54.53125 C 30.996094 53.480469 30.429688 52.34375 30.105469 51.375 C 29.863281 50.320312 28.242188 50.804688 28.566406 51.777344 Z M 313.527344 58.664062 C 308.507812 60.039062 303.648438 61.738281 298.785156 63.359375 C 298.542969 62.792969 298.300781 62.226562 297.976562 61.738281 C 303.078125 60.039062 308.101562 58.417969 313.285156 57.125 C 314.257812 56.878906 313.851562 55.503906 312.878906 55.664062 C 307.535156 56.636719 302.109375 58.175781 297.085938 60.28125 C 296.679688 59.714844 296.355469 59.230469 295.871094 58.742188 C 299.839844 57.367188 303.808594 56.152344 307.859375 55.097656 C 308.507812 54.9375 308.425781 53.804688 307.695312 53.882812 C 303.242188 54.449219 298.785156 55.664062 294.65625 57.449219 C 293.925781 56.800781 293.035156 56.152344 292.144531 55.664062 C 291.335938 55.179688 290.6875 56.394531 291.414062 56.878906 C 294.574219 58.988281 296.84375 62.226562 297.734375 65.953125 C 297.976562 67.003906 299.597656 66.519531 299.351562 65.464844 C 299.273438 65.304688 299.273438 65.140625 299.191406 64.980469 C 304.050781 63.359375 308.992188 61.820312 313.773438 59.878906 C 314.664062 59.632812 314.339844 58.417969 313.527344 58.664062 Z M 291.902344 62.710938 C 290.121094 62.226562 288.335938 61.578125 286.636719 60.847656 C 285.097656 60.203125 283.640625 59.148438 282.019531 58.742188 C 281.371094 58.582031 280.886719 59.390625 281.371094 59.878906 C 283.882812 62.308594 288.257812 63.359375 291.496094 64.089844 C 292.386719 64.25 292.792969 62.953125 291.902344 62.710938 Z M 284.609375 63.359375 C 283.800781 63.441406 283.640625 64.492188 284.449219 64.816406 C 285.257812 65.140625 286.230469 65.140625 287.042969 65.222656 C 287.933594 65.304688 288.175781 63.765625 287.285156 63.601562 C 286.394531 63.523438 285.421875 63.277344 284.609375 63.359375 Z M 187.410156 238.617188 C 189.679688 247.042969 191.21875 255.546875 191.703125 264.292969 C 191.785156 265.34375 193.484375 265.34375 193.402344 264.292969 C 192.917969 255.382812 191.539062 246.636719 188.867188 238.214844 C 188.542969 237.324219 187.085938 237.648438 187.410156 238.617188 Z M 99.683594 332.402344 C 99.199219 331.511719 97.824219 332.324219 98.308594 333.214844 C 102.359375 340.90625 106.488281 348.519531 110.539062 356.132812 C 111.027344 357.105469 112.484375 356.214844 111.996094 355.324219 C 107.949219 347.710938 103.898438 340.015625 99.683594 332.402344 Z M 103.167969 328.921875 C 102.761719 328.03125 101.46875 328.839844 101.871094 329.648438 C 105.761719 338.152344 109.972656 346.496094 114.023438 354.917969 C 114.507812 355.890625 115.964844 355.082031 115.480469 354.109375 C 111.429688 345.6875 107.460938 337.261719 103.167969 328.921875 Z M 301.136719 289.640625 C 295.789062 297.578125 290.847656 305.757812 285.746094 313.855469 C 285.179688 314.75 286.636719 315.640625 287.203125 314.667969 C 292.304688 306.566406 297.570312 298.550781 302.351562 290.289062 C 302.835938 289.480469 301.621094 288.832031 301.136719 289.640625 Z M 298.460938 287.457031 C 292.46875 294.988281 286.71875 303.085938 282.101562 311.507812 C 281.613281 312.398438 282.828125 313.046875 283.394531 312.238281 C 288.742188 304.21875 293.925781 296.121094 299.597656 288.265625 C 300.082031 287.617188 298.949219 286.808594 298.460938 287.457031 Z M 354.027344 287.050781 C 351.519531 290.453125 349.167969 294.015625 346.820312 297.578125 C 343.175781 294.5 340.824219 290.695312 340.339844 285.835938 C 340.257812 284.863281 338.800781 284.863281 338.800781 285.835938 C 339.042969 291.019531 341.554688 296.039062 345.929688 298.957031 C 339.207031 309.644531 333.292969 320.984375 328.191406 332.566406 C 327.785156 333.539062 329.242188 334.429688 329.648438 333.375 C 336.777344 317.339844 345.523438 302.355469 355.246094 287.777344 C 355.8125 286.96875 354.597656 286.242188 354.027344 287.050781 Z M 332.402344 296.605469 C 334.023438 296.445312 335.480469 296.769531 336.9375 297.578125 C 337.746094 298.066406 338.316406 296.929688 337.667969 296.363281 C 336.128906 295.230469 334.347656 294.664062 332.484375 294.90625 C 331.429688 295.066406 331.347656 296.6875 332.402344 296.605469 Z M 330.621094 299.601562 C 332.320312 299.441406 333.941406 300.007812 335.15625 301.222656 C 335.886719 301.953125 337.101562 300.816406 336.289062 300.089844 C 334.75 298.46875 332.5625 297.902344 330.375 298.308594 C 329.730469 298.46875 329.890625 299.765625 330.621094 299.601562 Z M 332.96875 303.652344 C 333.699219 304.21875 334.75 302.925781 333.941406 302.355469 C 332.238281 301.0625 330.296875 300.574219 328.191406 300.816406 C 327.378906 300.898438 327.378906 302.113281 328.191406 302.03125 C 329.972656 302.03125 331.511719 302.679688 332.96875 303.652344 Z M 78.707031 390.390625 C 72.550781 379.457031 66.476562 368.445312 60.074219 357.671875 C 59.589844 356.941406 58.457031 357.589844 58.859375 358.402344 C 66.960938 373.546875 75.628906 388.449219 84.050781 403.429688 C 84.621094 404.402344 86.078125 403.511719 85.511719 402.621094 C 83.484375 399.058594 81.542969 395.492188 79.515625 391.929688 C 83.484375 389.417969 88.019531 389.09375 92.394531 390.714844 C 93.042969 390.957031 93.449219 389.90625 92.882812 389.664062 C 88.265625 387.234375 83.082031 387.636719 78.707031 390.390625 Z M 81.703125 379.78125 C 80.8125 379.945312 81.054688 381.320312 81.945312 381.320312 C 83.890625 381.402344 85.671875 381.484375 87.453125 382.292969 C 88.265625 382.617188 88.914062 381.5625 88.101562 381.160156 C 86.238281 380.105469 83.972656 379.378906 81.703125 379.78125 Z M 81.460938 375.8125 C 80.570312 376.054688 80.8125 377.351562 81.703125 377.351562 C 83.40625 377.351562 84.863281 377.433594 86.238281 378.648438 C 86.886719 379.214844 87.859375 378.324219 87.210938 377.675781 C 85.671875 376.300781 83.40625 375.246094 81.460938 375.8125 Z M 80.894531 373.707031 C 82.511719 373.546875 84.050781 374.03125 85.1875 375.246094 C 85.914062 375.894531 86.886719 374.921875 86.238281 374.195312 C 84.863281 372.65625 82.917969 371.925781 80.8125 372.089844 C 79.839844 372.089844 79.839844 373.789062 80.894531 373.707031 Z M 157.117188 302.519531 C 156.546875 302.03125 155.414062 302.679688 155.980469 303.410156 C 158.492188 306.730469 161.976562 309.566406 164.972656 312.480469 C 165.703125 313.210938 166.753906 312.074219 166.027344 311.425781 C 163.109375 308.429688 160.355469 305.03125 157.117188 302.519531 Z M 255.855469 255.949219 C 253.34375 258.703125 250.753906 261.539062 248.484375 264.453125 C 247.917969 265.183594 249.132812 266.074219 249.78125 265.425781 C 252.371094 262.835938 254.640625 259.839844 256.988281 257.085938 C 257.636719 256.273438 256.503906 255.140625 255.855469 255.949219 Z M 165.863281 72.511719 C 164.730469 73.242188 163.59375 74.210938 162.542969 75.023438 C 161.894531 75.507812 162.703125 76.640625 163.433594 76.15625 C 164.730469 75.265625 166.105469 74.457031 167.320312 73.402344 C 167.566406 73.242188 167.566406 72.917969 167.566406 72.753906 C 167.566406 72.671875 167.566406 72.511719 167.566406 72.429688 C 166.347656 67.570312 164.972656 62.710938 163.59375 57.773438 C 163.269531 56.71875 161.734375 57.203125 161.976562 58.175781 C 163.191406 62.953125 164.40625 67.734375 165.863281 72.511719 Z M 152.902344 60.445312 C 153.632812 60.523438 153.792969 59.308594 153.066406 59.230469 C 149.097656 58.664062 143.914062 59.554688 141.320312 63.035156 C 140.914062 63.601562 141.726562 64.332031 142.292969 64.007812 C 143.992188 62.953125 145.289062 61.738281 147.234375 61.09375 C 149.097656 60.445312 150.960938 60.28125 152.902344 60.445312 Z M 171.046875 56.070312 C 170.398438 56.71875 171.371094 57.691406 172.019531 57.042969 C 175.503906 53.964844 179.066406 54.289062 183.277344 55.179688 C 184.089844 55.34375 184.414062 54.371094 183.765625 53.964844 C 179.957031 51.292969 174.125 53.074219 171.046875 56.070312 Z M 153.957031 69.109375 C 154.199219 69.757812 155.332031 69.273438 155.089844 68.625 C 154.199219 66.355469 151.769531 64.738281 149.257812 65.304688 C 146.667969 65.871094 145.128906 68.542969 145.53125 71.054688 C 145.695312 71.945312 147.234375 71.78125 147.152344 70.8125 C 146.828125 66.679688 152.175781 65.140625 153.957031 69.109375 Z M 177.691406 59.878906 C 175.257812 60.203125 173.640625 62.386719 173.558594 64.738281 C 173.558594 65.707031 175.015625 65.707031 175.097656 64.738281 C 175.257812 61.011719 180.363281 60.363281 181.335938 64.007812 C 181.660156 65.0625 183.277344 64.574219 182.953125 63.523438 C 182.386719 61.253906 180.121094 59.554688 177.691406 59.878906 Z M 155.171875 84.175781 C 161.488281 83.605469 167.402344 81.824219 173.152344 79.070312 C 173.398438 78.503906 174.449219 78.421875 174.773438 79.234375 C 177.203125 85.792969 173.71875 93.324219 166.671875 94.863281 C 160.597656 96.160156 152.984375 92.109375 154.363281 85.144531 C 154.363281 84.984375 154.441406 84.902344 154.523438 84.820312 C 154.523438 84.417969 154.765625 84.175781 155.171875 84.175781 Z M 173.316406 80.285156 C 167.886719 83.445312 161.976562 85.144531 155.738281 85.792969 C 154.929688 92.757812 164.242188 94.863281 169.105469 92.109375 C 173.316406 89.761719 174.691406 84.660156 173.316406 80.285156 Z M 148.042969 75.914062 C 147.71875 76.722656 147.152344 77.53125 147.070312 78.421875 C 146.988281 79.070312 147.71875 79.71875 148.285156 79.152344 C 148.851562 78.421875 149.097656 77.613281 149.5 76.804688 C 149.90625 75.832031 148.449219 74.941406 148.042969 75.914062 Z M 150.3125 75.914062 C 150.066406 76.5625 149.90625 77.128906 149.824219 77.777344 C 149.746094 78.421875 150.878906 78.746094 151.121094 78.101562 C 151.363281 77.453125 151.445312 76.886719 151.605469 76.238281 C 151.6875 75.425781 150.554688 75.023438 150.3125 75.914062 Z M 179.472656 69.675781 C 179.148438 70.566406 178.660156 71.378906 178.824219 72.347656 C 178.90625 72.835938 179.550781 72.917969 179.875 72.671875 C 180.523438 72.027344 180.769531 70.972656 181.011719 70.164062 C 181.496094 69.109375 179.875 68.703125 179.472656 69.675781 Z M 181.578125 69.351562 C 181.335938 69.839844 181.011719 70.324219 180.847656 70.890625 C 180.605469 71.621094 181.820312 72.1875 182.144531 71.457031 C 182.386719 70.890625 182.550781 70.40625 182.710938 69.839844 C 182.953125 69.109375 181.984375 68.703125 181.578125 69.351562 Z M 181.578125 69.351562 " fill-opacity="1" fill-rule="nonzero"/><path fill="#f3e9dc" d="M 125.121094 97.292969 C 120.015625 106.203125 114.671875 115.03125 109.242188 123.695312 C 108.675781 124.585938 107.300781 123.777344 107.867188 122.886719 C 113.050781 114.058594 118.476562 105.3125 124.066406 96.644531 C 124.472656 96 125.523438 96.644531 125.121094 97.292969 Z M 134.597656 100.535156 C 129.332031 109.929688 124.308594 119.402344 119.207031 128.796875 C 118.722656 129.769531 120.179688 130.582031 120.664062 129.609375 C 125.769531 120.132812 130.871094 110.738281 135.894531 101.179688 C 136.296875 100.453125 135.003906 99.722656 134.597656 100.535156 Z M 201.097656 128.3125 C 201.421875 129.203125 202.882812 128.878906 202.636719 127.90625 C 199.882812 119.242188 196.886719 110.574219 193.484375 102.152344 C 193.160156 101.34375 191.863281 101.667969 192.1875 102.558594 C 194.78125 111.222656 197.777344 119.890625 201.097656 128.3125 Z M 212.277344 123.777344 C 212.683594 124.75 214.300781 124.34375 213.898438 123.292969 C 210.414062 114.707031 207.09375 106.121094 203.527344 97.617188 C 203.125 96.726562 201.585938 97.050781 201.988281 98.023438 C 205.230469 106.6875 208.792969 115.191406 212.277344 123.777344 Z M 132.085938 125.964844 C 131.925781 126.125 131.84375 126.289062 131.84375 126.449219 C 130.546875 129.121094 129.25 131.714844 127.953125 134.386719 C 127.46875 135.359375 128.925781 136.25 129.414062 135.195312 C 130.710938 132.605469 131.925781 130.011719 133.21875 127.421875 C 152.984375 127.90625 172.910156 127.664062 192.59375 125.722656 C 193.484375 127.664062 194.375 129.6875 195.265625 131.632812 C 195.753906 132.605469 197.128906 131.796875 196.726562 130.824219 C 193 122.644531 189.355469 114.464844 185.546875 106.363281 C 185.140625 105.472656 183.847656 106.285156 184.25 107.09375 C 184.980469 108.875 185.789062 110.574219 186.601562 112.359375 C 182.875 112.4375 179.066406 112.359375 175.421875 112.761719 C 174.449219 112.84375 174.367188 114.300781 175.421875 114.300781 C 179.230469 114.300781 183.117188 113.898438 186.921875 113.574219 C 187.003906 113.574219 187.085938 113.492188 187.167969 113.492188 C 188.785156 117.136719 190.40625 120.78125 192.109375 124.425781 C 172.75 125.316406 153.46875 126.125 134.109375 125.722656 C 136.136719 121.671875 138.082031 117.621094 140.023438 113.652344 C 144.558594 113.574219 149.097656 113.410156 153.632812 113.085938 C 154.441406 113.003906 154.441406 111.789062 153.632812 111.789062 C 149.339844 111.710938 145.046875 111.789062 140.753906 111.953125 C 141.804688 109.765625 142.941406 107.5 143.992188 105.3125 C 144.398438 104.421875 143.101562 103.691406 142.695312 104.582031 C 141.402344 107.09375 140.1875 109.683594 138.890625 112.195312 C 138.648438 112.359375 138.566406 112.601562 138.566406 112.925781 C 136.378906 117.21875 134.273438 121.589844 132.085938 125.964844 Z M 128.523438 143.78125 C 152.175781 144.835938 175.90625 144.1875 199.316406 140.867188 C 200.046875 140.785156 199.882812 139.488281 199.15625 139.570312 C 175.582031 142 152.175781 143.214844 128.523438 142.082031 C 127.386719 142 127.386719 143.699219 128.523438 143.78125 Z M 127.710938 160.382812 C 152.417969 159.574219 177.285156 158.117188 201.667969 154.308594 C 202.394531 154.230469 202.234375 153.015625 201.503906 153.09375 C 176.878906 155.523438 152.417969 157.953125 127.710938 158.683594 C 126.578125 158.683594 126.578125 160.382812 127.710938 160.382812 Z M 125.847656 173.988281 C 151.851562 173.828125 179.230469 175.851562 204.421875 168.644531 C 205.230469 168.402344 204.90625 167.269531 204.097656 167.429688 C 178.335938 173.019531 152.09375 172.207031 125.847656 172.371094 C 124.714844 172.289062 124.714844 173.988281 125.847656 173.988281 Z M 124.714844 187.515625 C 152.175781 187.515625 179.796875 187.433594 206.929688 182.65625 C 207.984375 182.492188 207.5 180.957031 206.527344 181.117188 C 179.390625 185.410156 152.175781 185.816406 124.714844 185.894531 C 123.660156 185.816406 123.660156 187.515625 124.714844 187.515625 Z M 123.984375 203.957031 C 152.742188 203.066406 181.820312 200.960938 210.171875 195.777344 C 210.898438 195.613281 210.738281 194.398438 210.007812 194.480469 C 181.335938 198.125 152.902344 201.445312 124.066406 202.335938 C 122.851562 202.253906 122.851562 203.957031 123.984375 203.957031 Z M 122.851562 213.511719 C 152.5 215.617188 183.765625 218.289062 212.601562 209.21875 C 213.332031 208.976562 213.007812 207.84375 212.277344 208.003906 C 182.386719 214.808594 153.226562 214 122.851562 211.8125 C 121.800781 211.730469 121.800781 213.429688 122.851562 213.511719 Z M 213.167969 213.351562 C 184.25 226.148438 151.445312 233.757812 122.285156 217.238281 C 121.3125 216.671875 120.503906 218.128906 121.476562 218.695312 C 151.039062 235.378906 184.65625 228.171875 213.898438 214.484375 C 214.625 214.160156 213.976562 213.027344 213.167969 213.351562 Z M 213.167969 213.351562 " fill-opacity="1" fill-rule="nonzero"/></svg>