<svg xmlns="http://www.w3.org/2000/svg" xmlns:xlink="http://www.w3.org/1999/xlink" width="315" zoomAndPan="magnify" viewBox="0 0 236.25 120.750001" height="161" preserveAspectRatio="xMidYMid meet" version="1.0"><defs><clipPath id="ed6e687441"><path d="M 136 0.726562 L 142 0.726562 L 142 6 L 136 6 Z M 136 0.726562 " clip-rule="nonzero"/></clipPath><clipPath id="565cbd801e"><path d="M 230.425781 76.074219 L 234.699219 76.074219 L 234.699219 80.472656 L 230.425781 80.472656 Z M 230.425781 76.074219 " clip-rule="nonzero"/></clipPath><clipPath id="7f976ba6ea"><path d="M 115.292969 116 L 119.808594 116 L 119.808594 120.347656 L 115.292969 120.347656 Z M 115.292969 116 " clip-rule="nonzero"/></clipPath><clipPath id="6ecdc8b2c3"><path d="M 0.695312 76 L 5 76 L 5 81 L 0.695312 81 Z M 0.695312 76 " clip-rule="nonzero"/></clipPath><clipPath id="2409fd3bd3"><path d="M 93 0.726562 L 99 0.726562 L 99 6 L 93 6 Z M 93 0.726562 " clip-rule="nonzero"/></clipPath><clipPath id="1eb92ca8a9"><path d="M 136 0.726562 L 142 0.726562 L 142 6 L 136 6 Z M 136 0.726562 " clip-rule="nonzero"/></clipPath><clipPath id="3c3b618e69"><path d="M 230.425781 76.074219 L 234.699219 76.074219 L 234.699219 80.472656 L 230.425781 80.472656 Z M 230.425781 76.074219 " clip-rule="nonzero"/></clipPath><clipPath id="4b29537af5"><path d="M 115.292969 116 L 119.808594 116 L 119.808594 120.347656 L 115.292969 120.347656 Z M 115.292969 116 " clip-rule="nonzero"/></clipPath><clipPath id="8f2297505a"><path d="M 0.695312 76 L 5 76 L 5 81 L 0.695312 81 Z M 0.695312 76 " clip-rule="nonzero"/></clipPath><clipPath id="d28bd506da"><path d="M 93 0.726562 L 99 0.726562 L 99 6 L 93 6 Z M 93 0.726562 " clip-rule="nonzero"/></clipPath></defs><path fill="#231f20" d="M 166.160156 37.855469 L 155.117188 37.855469 L 149.59375 28.25 L 155.117188 18.640625 L 166.160156 18.640625 L 171.683594 28.25 Z M 166.914062 17.335938 L 154.363281 17.335938 L 148.089844 28.25 L 154.363281 39.160156 L 166.914062 39.160156 L 173.1875 28.25 L 166.914062 17.335938 " fill-opacity="1" fill-rule="nonzero"/><path fill="#231f20" d="M 187.707031 50.34375 L 176.660156 50.34375 L 171.136719 40.738281 L 176.660156 31.132812 L 187.707031 31.132812 L 193.230469 40.738281 Z M 188.457031 29.824219 L 175.910156 29.824219 L 169.636719 40.738281 L 175.910156 51.652344 L 188.457031 51.652344 L 194.734375 40.738281 L 188.457031 29.824219 " fill-opacity="1" fill-rule="nonzero"/><path fill="#231f20" d="M 187.707031 75.328125 L 176.660156 75.328125 L 171.136719 65.722656 L 176.660156 56.117188 L 187.707031 56.117188 L 193.230469 65.722656 Z M 188.457031 54.808594 L 175.910156 54.808594 L 169.636719 65.722656 L 175.910156 76.636719 L 188.457031 76.636719 L 194.734375 65.722656 L 188.457031 54.808594 " fill-opacity="1" fill-rule="nonzero"/><path fill="#231f20" d="M 176.660156 81.097656 L 187.707031 81.097656 L 193.230469 90.703125 L 187.707031 100.308594 L 176.660156 100.308594 L 171.136719 90.703125 Z M 188.457031 101.617188 L 194.734375 90.703125 L 188.457031 79.789062 L 175.910156 79.789062 L 169.636719 90.703125 L 175.910156 101.617188 L 188.457031 101.617188 " fill-opacity="1" fill-rule="nonzero"/><path fill="#231f20" d="M 133.570312 31.132812 L 144.617188 31.132812 L 150.140625 40.738281 L 144.617188 50.34375 L 133.570312 50.34375 L 128.046875 40.738281 Z M 145.367188 51.652344 L 151.644531 40.738281 L 145.367188 29.824219 L 132.820312 29.824219 L 126.542969 40.738281 L 132.820312 51.652344 L 145.367188 51.652344 " fill-opacity="1" fill-rule="nonzero"/><path fill="#231f20" d="M 133.570312 56.117188 L 144.617188 56.117188 L 150.140625 65.722656 L 144.617188 75.328125 L 133.570312 75.328125 L 128.046875 65.722656 Z M 145.367188 76.636719 L 151.644531 65.722656 L 145.367188 54.808594 L 132.820312 54.808594 L 126.542969 65.722656 L 132.820312 76.636719 L 145.367188 76.636719 " fill-opacity="1" fill-rule="nonzero"/><path fill="#231f20" d="M 149.59375 78.214844 L 155.117188 68.605469 L 166.160156 68.605469 L 171.683594 78.214844 L 166.160156 87.820312 L 155.117188 87.820312 Z M 160.636719 89.125 L 166.914062 89.125 L 173.1875 78.214844 L 166.914062 67.300781 L 154.363281 67.300781 L 148.089844 78.214844 L 154.363281 89.125 L 160.636719 89.125 " fill-opacity="1" fill-rule="nonzero"/><path fill="#231f20" d="M 133.570312 81.097656 L 144.617188 81.097656 L 150.140625 90.703125 L 144.617188 100.308594 L 133.570312 100.308594 L 128.046875 90.703125 Z M 145.367188 101.617188 L 151.644531 90.703125 L 145.367188 79.789062 L 132.820312 79.789062 L 126.542969 90.703125 L 132.820312 101.617188 L 145.367188 101.617188 " fill-opacity="1" fill-rule="nonzero"/><path fill="#231f20" d="M 112.027344 18.640625 L 123.070312 18.640625 L 128.59375 28.25 L 123.070312 37.855469 L 112.027344 37.855469 L 106.503906 28.25 Z M 117.550781 39.160156 L 123.824219 39.160156 L 130.097656 28.25 L 123.824219 17.335938 L 111.273438 17.335938 L 105 28.25 L 111.273438 39.160156 L 117.550781 39.160156 " fill-opacity="1" fill-rule="nonzero"/><path fill="#231f20" d="M 90.480469 31.132812 L 101.527344 31.132812 L 107.050781 40.738281 L 101.527344 50.34375 L 90.480469 50.34375 L 84.957031 40.738281 Z M 89.730469 51.652344 L 102.277344 51.652344 L 108.554688 40.738281 L 102.277344 29.824219 L 89.730469 29.824219 L 83.453125 40.738281 L 89.730469 51.652344 " fill-opacity="1" fill-rule="nonzero"/><path fill="#231f20" d="M 106.503906 53.230469 L 112.027344 43.625 L 123.070312 43.625 L 128.59375 53.230469 L 123.070312 62.835938 L 112.027344 62.835938 Z M 117.550781 64.144531 L 123.824219 64.144531 L 130.097656 53.230469 L 123.824219 42.316406 L 111.273438 42.316406 L 105 53.230469 L 111.273438 64.144531 L 117.550781 64.144531 " fill-opacity="1" fill-rule="nonzero"/><path fill="#231f20" d="M 106.503906 78.214844 L 112.027344 68.605469 L 123.070312 68.605469 L 128.59375 78.214844 L 123.070312 87.820312 L 112.027344 87.820312 Z M 117.550781 89.125 L 123.824219 89.125 L 130.097656 78.214844 L 123.824219 67.300781 L 111.273438 67.300781 L 105 78.214844 L 111.273438 89.125 L 117.550781 89.125 " fill-opacity="1" fill-rule="nonzero"/><path fill="#231f20" d="M 90.480469 81.097656 L 101.527344 81.097656 L 107.050781 90.703125 L 101.527344 100.308594 L 90.480469 100.308594 L 84.957031 90.703125 Z M 102.277344 101.617188 L 108.554688 90.703125 L 102.277344 79.789062 L 89.730469 79.789062 L 83.453125 90.703125 L 89.730469 101.617188 L 102.277344 101.617188 " fill-opacity="1" fill-rule="nonzero"/><path fill="#231f20" d="M 68.9375 43.625 L 79.980469 43.625 L 85.503906 53.230469 L 79.980469 62.835938 L 68.9375 62.835938 L 63.414062 53.230469 Z M 61.910156 53.230469 L 68.183594 64.144531 L 80.734375 64.144531 L 87.007812 53.230469 L 80.734375 42.316406 L 68.183594 42.316406 L 61.910156 53.230469 " fill-opacity="1" fill-rule="nonzero"/><path fill="#231f20" d="M 63.414062 78.214844 L 68.9375 68.605469 L 79.980469 68.605469 L 85.503906 78.214844 L 79.980469 87.820312 L 68.9375 87.820312 Z M 74.460938 89.125 L 80.734375 89.125 L 87.007812 78.214844 L 80.734375 67.300781 L 68.183594 67.300781 L 61.910156 78.214844 L 68.183594 89.125 L 74.460938 89.125 " fill-opacity="1" fill-rule="nonzero"/><path fill="#231f20" d="M 204.929688 53.636719 L 128.59375 53.636719 L 128.59375 52.824219 L 204.929688 52.824219 L 204.929688 53.636719 " fill-opacity="1" fill-rule="nonzero"/><path fill="#231f20" d="M 204.824219 55.367188 C 205.996094 55.367188 206.949219 54.410156 206.949219 53.230469 C 206.949219 52.050781 205.996094 51.09375 204.824219 51.09375 C 203.648438 51.09375 202.695312 52.050781 202.695312 53.230469 C 202.695312 54.410156 203.648438 55.367188 204.824219 55.367188 " fill-opacity="1" fill-rule="nonzero"/><path fill="#231f20" d="M 128.046875 66.128906 L 98.027344 66.128906 L 98.027344 65.316406 L 128.046875 65.316406 L 128.046875 66.128906 " fill-opacity="1" fill-rule="nonzero"/><path fill="#231f20" d="M 98.132812 63.585938 C 96.957031 63.585938 96.003906 64.542969 96.003906 65.722656 C 96.003906 66.902344 96.957031 67.859375 98.132812 67.859375 C 99.308594 67.859375 100.257812 66.902344 100.257812 65.722656 C 100.257812 64.542969 99.308594 63.585938 98.132812 63.585938 " fill-opacity="1" fill-rule="nonzero"/><path fill="#231f20" d="M 139.496094 29.824219 L 138.6875 29.824219 L 138.6875 2.761719 L 139.496094 2.761719 L 139.496094 29.824219 " fill-opacity="1" fill-rule="nonzero"/><g clip-path="url(#ed6e687441)"><path fill="#231f20" d="M 141.222656 2.867188 C 141.222656 1.6875 140.269531 0.730469 139.09375 0.730469 C 137.917969 0.730469 136.96875 1.6875 136.96875 2.867188 C 136.96875 4.046875 137.917969 5.003906 139.09375 5.003906 C 140.269531 5.003906 141.222656 4.046875 141.222656 2.867188 " fill-opacity="1" fill-rule="nonzero"/></g><path fill="#231f20" d="M 223.429688 28.65625 L 171.683594 28.65625 L 171.683594 27.84375 L 223.429688 27.84375 L 223.429688 28.65625 " fill-opacity="1" fill-rule="nonzero"/><path fill="#231f20" d="M 223.324219 30.386719 C 224.5 30.386719 225.453125 29.429688 225.453125 28.25 C 225.453125 27.070312 224.5 26.113281 223.324219 26.113281 C 222.152344 26.113281 221.199219 27.070312 221.199219 28.25 C 221.199219 29.429688 222.152344 30.386719 223.324219 30.386719 " fill-opacity="1" fill-rule="nonzero"/><path fill="#231f20" d="M 232.683594 78.617188 L 173.191406 78.617188 L 173.191406 77.808594 L 232.683594 77.808594 L 232.683594 78.617188 " fill-opacity="1" fill-rule="nonzero"/><g clip-path="url(#565cbd801e)"><path fill="#231f20" d="M 232.578125 80.351562 C 233.753906 80.351562 234.703125 79.394531 234.703125 78.214844 C 234.703125 77.035156 233.753906 76.078125 232.578125 76.078125 C 231.402344 76.078125 230.449219 77.035156 230.449219 78.214844 C 230.449219 79.394531 231.402344 80.351562 232.578125 80.351562 " fill-opacity="1" fill-rule="nonzero"/></g><path fill="#231f20" d="M 117.953125 118.316406 L 117.144531 118.316406 L 117.144531 89.125 L 117.953125 89.125 L 117.953125 118.316406 " fill-opacity="1" fill-rule="nonzero"/><g clip-path="url(#7f976ba6ea)"><path fill="#231f20" d="M 115.421875 118.210938 C 115.421875 119.390625 116.375 120.347656 117.550781 120.347656 C 118.722656 120.347656 119.675781 119.390625 119.675781 118.210938 C 119.675781 117.03125 118.722656 116.074219 117.550781 116.074219 C 116.375 116.074219 115.421875 117.03125 115.421875 118.210938 " fill-opacity="1" fill-rule="nonzero"/></g><path fill="#231f20" d="M 84.957031 41.144531 L 31.558594 41.144531 L 31.558594 40.332031 L 84.957031 40.332031 L 84.957031 41.144531 " fill-opacity="1" fill-rule="nonzero"/><path fill="#231f20" d="M 31.664062 38.601562 C 30.488281 38.601562 29.535156 39.558594 29.535156 40.738281 C 29.535156 41.917969 30.488281 42.875 31.664062 42.875 C 32.839844 42.875 33.792969 41.917969 33.792969 40.738281 C 33.792969 39.558594 32.839844 38.601562 31.664062 38.601562 " fill-opacity="1" fill-rule="nonzero"/><path fill="#231f20" d="M 61.910156 78.617188 L 2.714844 78.617188 L 2.714844 77.808594 L 61.910156 77.808594 L 61.910156 78.617188 " fill-opacity="1" fill-rule="nonzero"/><g clip-path="url(#6ecdc8b2c3)"><path fill="#231f20" d="M 2.820312 76.078125 C 1.648438 76.078125 0.695312 77.035156 0.695312 78.214844 C 0.695312 79.394531 1.648438 80.351562 2.820312 80.351562 C 3.996094 80.351562 4.949219 79.394531 4.949219 78.214844 C 4.949219 77.035156 3.996094 76.078125 2.820312 76.078125 " fill-opacity="1" fill-rule="nonzero"/></g><path fill="#231f20" d="M 84.957031 91.109375 L 41.898438 91.109375 L 41.898438 90.296875 L 84.957031 90.296875 L 84.957031 91.109375 " fill-opacity="1" fill-rule="nonzero"/><path fill="#231f20" d="M 42.003906 88.566406 C 40.828125 88.566406 39.875 89.523438 39.875 90.703125 C 39.875 91.882812 40.828125 92.839844 42.003906 92.839844 C 43.179688 92.839844 44.132812 91.882812 44.132812 90.703125 C 44.132812 89.523438 43.179688 88.566406 42.003906 88.566406 " fill-opacity="1" fill-rule="nonzero"/><path fill="#231f20" d="M 96.40625 29.824219 L 95.601562 29.824219 L 95.601562 2.761719 L 96.40625 2.761719 L 96.40625 29.824219 " fill-opacity="1" fill-rule="nonzero"/><g clip-path="url(#2409fd3bd3)"><path fill="#231f20" d="M 98.132812 2.867188 C 98.132812 1.6875 97.179688 0.730469 96.003906 0.730469 C 94.828125 0.730469 93.875 1.6875 93.875 2.867188 C 93.875 4.046875 94.828125 5.003906 96.003906 5.003906 C 97.179688 5.003906 98.132812 4.046875 98.132812 2.867188 " fill-opacity="1" fill-rule="nonzero"/></g><path fill="#231f20" d="M 166.160156 37.855469 L 155.117188 37.855469 L 149.59375 28.25 L 155.117188 18.640625 L 166.160156 18.640625 L 171.683594 28.25 Z M 166.914062 17.335938 L 154.363281 17.335938 L 148.089844 28.25 L 154.363281 39.160156 L 166.914062 39.160156 L 173.1875 28.25 L 166.914062 17.335938 " fill-opacity="1" fill-rule="nonzero"/><path fill="#231f20" d="M 187.707031 50.34375 L 176.660156 50.34375 L 171.136719 40.738281 L 176.660156 31.132812 L 187.707031 31.132812 L 193.230469 40.738281 Z M 188.457031 29.824219 L 175.910156 29.824219 L 169.636719 40.738281 L 175.910156 51.652344 L 188.457031 51.652344 L 194.734375 40.738281 L 188.457031 29.824219 " fill-opacity="1" fill-rule="nonzero"/><path fill="#231f20" d="M 187.707031 75.328125 L 176.660156 75.328125 L 171.136719 65.722656 L 176.660156 56.117188 L 187.707031 56.117188 L 193.230469 65.722656 Z M 188.457031 54.808594 L 175.910156 54.808594 L 169.636719 65.722656 L 175.910156 76.636719 L 188.457031 76.636719 L 194.734375 65.722656 L 188.457031 54.808594 " fill-opacity="1" fill-rule="nonzero"/><path fill="#231f20" d="M 176.660156 81.097656 L 187.707031 81.097656 L 193.230469 90.703125 L 187.707031 100.308594 L 176.660156 100.308594 L 171.136719 90.703125 Z M 188.457031 101.617188 L 194.734375 90.703125 L 188.457031 79.789062 L 175.910156 79.789062 L 169.636719 90.703125 L 175.910156 101.617188 L 188.457031 101.617188 " fill-opacity="1" fill-rule="nonzero"/><path fill="#231f20" d="M 133.570312 31.132812 L 144.617188 31.132812 L 150.140625 40.738281 L 144.617188 50.34375 L 133.570312 50.34375 L 128.046875 40.738281 Z M 145.367188 51.652344 L 151.644531 40.738281 L 145.367188 29.824219 L 132.820312 29.824219 L 126.542969 40.738281 L 132.820312 51.652344 L 145.367188 51.652344 " fill-opacity="1" fill-rule="nonzero"/><path fill="#231f20" d="M 133.570312 56.117188 L 144.617188 56.117188 L 150.140625 65.722656 L 144.617188 75.328125 L 133.570312 75.328125 L 128.046875 65.722656 Z M 145.367188 76.636719 L 151.644531 65.722656 L 145.367188 54.808594 L 132.820312 54.808594 L 126.542969 65.722656 L 132.820312 76.636719 L 145.367188 76.636719 " fill-opacity="1" fill-rule="nonzero"/><path fill="#231f20" d="M 149.59375 78.214844 L 155.117188 68.605469 L 166.160156 68.605469 L 171.683594 78.214844 L 166.160156 87.820312 L 155.117188 87.820312 Z M 160.636719 89.125 L 166.914062 89.125 L 173.1875 78.214844 L 166.914062 67.300781 L 154.363281 67.300781 L 148.089844 78.214844 L 154.363281 89.125 L 160.636719 89.125 " fill-opacity="1" fill-rule="nonzero"/><path fill="#231f20" d="M 133.570312 81.097656 L 144.617188 81.097656 L 150.140625 90.703125 L 144.617188 100.308594 L 133.570312 100.308594 L 128.046875 90.703125 Z M 145.367188 101.617188 L 151.644531 90.703125 L 145.367188 79.789062 L 132.820312 79.789062 L 126.542969 90.703125 L 132.820312 101.617188 L 145.367188 101.617188 " fill-opacity="1" fill-rule="nonzero"/><path fill="#231f20" d="M 112.027344 18.640625 L 123.070312 18.640625 L 128.59375 28.25 L 123.070312 37.855469 L 112.027344 37.855469 L 106.503906 28.25 Z M 117.550781 39.160156 L 123.824219 39.160156 L 130.097656 28.25 L 123.824219 17.335938 L 111.273438 17.335938 L 105 28.25 L 111.273438 39.160156 L 117.550781 39.160156 " fill-opacity="1" fill-rule="nonzero"/><path fill="#231f20" d="M 90.480469 31.132812 L 101.527344 31.132812 L 107.050781 40.738281 L 101.527344 50.34375 L 90.480469 50.34375 L 84.957031 40.738281 Z M 89.730469 51.652344 L 102.277344 51.652344 L 108.554688 40.738281 L 102.277344 29.824219 L 89.730469 29.824219 L 83.453125 40.738281 L 89.730469 51.652344 " fill-opacity="1" fill-rule="nonzero"/><path fill="#231f20" d="M 106.503906 53.230469 L 112.027344 43.625 L 123.070312 43.625 L 128.59375 53.230469 L 123.070312 62.835938 L 112.027344 62.835938 Z M 117.550781 64.144531 L 123.824219 64.144531 L 130.097656 53.230469 L 123.824219 42.316406 L 111.273438 42.316406 L 105 53.230469 L 111.273438 64.144531 L 117.550781 64.144531 " fill-opacity="1" fill-rule="nonzero"/><path fill="#231f20" d="M 106.503906 78.214844 L 112.027344 68.605469 L 123.070312 68.605469 L 128.59375 78.214844 L 123.070312 87.820312 L 112.027344 87.820312 Z M 117.550781 89.125 L 123.824219 89.125 L 130.097656 78.214844 L 123.824219 67.300781 L 111.273438 67.300781 L 105 78.214844 L 111.273438 89.125 L 117.550781 89.125 " fill-opacity="1" fill-rule="nonzero"/><path fill="#231f20" d="M 90.480469 81.097656 L 101.527344 81.097656 L 107.050781 90.703125 L 101.527344 100.308594 L 90.480469 100.308594 L 84.957031 90.703125 Z M 102.277344 101.617188 L 108.554688 90.703125 L 102.277344 79.789062 L 89.730469 79.789062 L 83.453125 90.703125 L 89.730469 101.617188 L 102.277344 101.617188 " fill-opacity="1" fill-rule="nonzero"/><path fill="#231f20" d="M 68.9375 43.625 L 79.980469 43.625 L 85.503906 53.230469 L 79.980469 62.835938 L 68.9375 62.835938 L 63.414062 53.230469 Z M 61.910156 53.230469 L 68.183594 64.144531 L 80.734375 64.144531 L 87.007812 53.230469 L 80.734375 42.316406 L 68.183594 42.316406 L 61.910156 53.230469 " fill-opacity="1" fill-rule="nonzero"/><path fill="#231f20" d="M 63.414062 78.214844 L 68.9375 68.605469 L 79.980469 68.605469 L 85.503906 78.214844 L 79.980469 87.820312 L 68.9375 87.820312 Z M 74.460938 89.125 L 80.734375 89.125 L 87.007812 78.214844 L 80.734375 67.300781 L 68.183594 67.300781 L 61.910156 78.214844 L 68.183594 89.125 L 74.460938 89.125 " fill-opacity="1" fill-rule="nonzero"/><path fill="#231f20" d="M 204.929688 53.636719 L 128.59375 53.636719 L 128.59375 52.824219 L 204.929688 52.824219 L 204.929688 53.636719 " fill-opacity="1" fill-rule="nonzero"/><path fill="#231f20" d="M 204.824219 55.367188 C 205.996094 55.367188 206.949219 54.410156 206.949219 53.230469 C 206.949219 52.050781 205.996094 51.09375 204.824219 51.09375 C 203.648438 51.09375 202.695312 52.050781 202.695312 53.230469 C 202.695312 54.410156 203.648438 55.367188 204.824219 55.367188 " fill-opacity="1" fill-rule="nonzero"/><path fill="#231f20" d="M 128.046875 66.128906 L 98.027344 66.128906 L 98.027344 65.316406 L 128.046875 65.316406 L 128.046875 66.128906 " fill-opacity="1" fill-rule="nonzero"/><path fill="#231f20" d="M 98.132812 63.585938 C 96.957031 63.585938 96.003906 64.542969 96.003906 65.722656 C 96.003906 66.902344 96.957031 67.859375 98.132812 67.859375 C 99.308594 67.859375 100.257812 66.902344 100.257812 65.722656 C 100.257812 64.542969 99.308594 63.585938 98.132812 63.585938 " fill-opacity="1" fill-rule="nonzero"/><path fill="#231f20" d="M 139.496094 29.824219 L 138.6875 29.824219 L 138.6875 2.761719 L 139.496094 2.761719 L 139.496094 29.824219 " fill-opacity="1" fill-rule="nonzero"/><g clip-path="url(#1eb92ca8a9)"><path fill="#231f20" d="M 141.222656 2.867188 C 141.222656 1.6875 140.269531 0.730469 139.09375 0.730469 C 137.917969 0.730469 136.96875 1.6875 136.96875 2.867188 C 136.96875 4.046875 137.917969 5.003906 139.09375 5.003906 C 140.269531 5.003906 141.222656 4.046875 141.222656 2.867188 " fill-opacity="1" fill-rule="nonzero"/></g><path fill="#231f20" d="M 223.429688 28.65625 L 171.683594 28.65625 L 171.683594 27.84375 L 223.429688 27.84375 L 223.429688 28.65625 " fill-opacity="1" fill-rule="nonzero"/><path fill="#231f20" d="M 223.324219 30.386719 C 224.5 30.386719 225.453125 29.429688 225.453125 28.25 C 225.453125 27.070312 224.5 26.113281 223.324219 26.113281 C 222.152344 26.113281 221.199219 27.070312 221.199219 28.25 C 221.199219 29.429688 222.152344 30.386719 223.324219 30.386719 " fill-opacity="1" fill-rule="nonzero"/><path fill="#231f20" d="M 232.683594 78.617188 L 173.191406 78.617188 L 173.191406 77.808594 L 232.683594 77.808594 L 232.683594 78.617188 " fill-opacity="1" fill-rule="nonzero"/><g clip-path="url(#3c3b618e69)"><path fill="#231f20" d="M 232.578125 80.351562 C 233.753906 80.351562 234.703125 79.394531 234.703125 78.214844 C 234.703125 77.035156 233.753906 76.078125 232.578125 76.078125 C 231.402344 76.078125 230.449219 77.035156 230.449219 78.214844 C 230.449219 79.394531 231.402344 80.351562 232.578125 80.351562 " fill-opacity="1" fill-rule="nonzero"/></g><path fill="#231f20" d="M 117.953125 118.316406 L 117.144531 118.316406 L 117.144531 89.125 L 117.953125 89.125 L 117.953125 118.316406 " fill-opacity="1" fill-rule="nonzero"/><g clip-path="url(#4b29537af5)"><path fill="#231f20" d="M 115.421875 118.210938 C 115.421875 119.390625 116.375 120.347656 117.550781 120.347656 C 118.722656 120.347656 119.675781 119.390625 119.675781 118.210938 C 119.675781 117.03125 118.722656 116.074219 117.550781 116.074219 C 116.375 116.074219 115.421875 117.03125 115.421875 118.210938 " fill-opacity="1" fill-rule="nonzero"/></g><path fill="#231f20" d="M 84.957031 41.144531 L 31.558594 41.144531 L 31.558594 40.332031 L 84.957031 40.332031 L 84.957031 41.144531 " fill-opacity="1" fill-rule="nonzero"/><path fill="#231f20" d="M 31.664062 38.601562 C 30.488281 38.601562 29.535156 39.558594 29.535156 40.738281 C 29.535156 41.917969 30.488281 42.875 31.664062 42.875 C 32.839844 42.875 33.792969 41.917969 33.792969 40.738281 C 33.792969 39.558594 32.839844 38.601562 31.664062 38.601562 " fill-opacity="1" fill-rule="nonzero"/><path fill="#231f20" d="M 61.910156 78.617188 L 2.714844 78.617188 L 2.714844 77.808594 L 61.910156 77.808594 L 61.910156 78.617188 " fill-opacity="1" fill-rule="nonzero"/><g clip-path="url(#8f2297505a)"><path fill="#231f20" d="M 2.820312 76.078125 C 1.648438 76.078125 0.695312 77.035156 0.695312 78.214844 C 0.695312 79.394531 1.648438 80.351562 2.820312 80.351562 C 3.996094 80.351562 4.949219 79.394531 4.949219 78.214844 C 4.949219 77.035156 3.996094 76.078125 2.820312 76.078125 " fill-opacity="1" fill-rule="nonzero"/></g><path fill="#231f20" d="M 84.957031 91.109375 L 41.898438 91.109375 L 41.898438 90.296875 L 84.957031 90.296875 L 84.957031 91.109375 " fill-opacity="1" fill-rule="nonzero"/><path fill="#231f20" d="M 42.003906 88.566406 C 40.828125 88.566406 39.875 89.523438 39.875 90.703125 C 39.875 91.882812 40.828125 92.839844 42.003906 92.839844 C 43.179688 92.839844 44.132812 91.882812 44.132812 90.703125 C 44.132812 89.523438 43.179688 88.566406 42.003906 88.566406 " fill-opacity="1" fill-rule="nonzero"/><path fill="#231f20" d="M 96.40625 29.824219 L 95.601562 29.824219 L 95.601562 2.761719 L 96.40625 2.761719 L 96.40625 29.824219 " fill-opacity="1" fill-rule="nonzero"/><g clip-path="url(#d28bd506da)"><path fill="#231f20" d="M 98.132812 2.867188 C 98.132812 1.6875 97.179688 0.730469 96.003906 0.730469 C 94.828125 0.730469 93.875 1.6875 93.875 2.867188 C 93.875 4.046875 94.828125 5.003906 96.003906 5.003906 C 97.179688 5.003906 98.132812 4.046875 98.132812 2.867188 " fill-opacity="1" fill-rule="nonzero"/></g></svg>